<?xml version="1.0" standalone="no"?>
<!DOCTYPE svg PUBLIC "-//W3C//DTD SVG 20010904//EN"
 "http://www.w3.org/TR/2001/REC-SVG-20010904/DTD/svg10.dtd">
<svg version="1.0" xmlns="http://www.w3.org/2000/svg"
 width="997.000000pt" height="920.000000pt" viewBox="0 0 997.000000 920.000000"
 preserveAspectRatio="xMidYMid meet">

<g transform="translate(0.000000,920.000000) scale(0.100000,-0.100000)"
fill="#000000" stroke="none">
<path d="M24 9173 c-18 -27 -19 -131 -22 -3737 l-2 -3709 25 -43 c18 -30 40
-49 77 -68 l52 -26 1558 0 c857 0 1558 -3 1558 -7 0 -3 -134 -317 -297 -697
-307 -715 -348 -816 -333 -816 5 0 12 9 15 20 3 11 12 26 19 32 10 11 2459
4246 2493 4313 22 42 -30 286 -91 426 -47 109 -89 177 -164 266 -151 176 -375
311 -621 370 -58 14 -113 27 -121 30 -8 2 28 21 81 42 319 125 550 325 684
590 48 97 98 251 121 376 17 89 19 154 19 585 -1 450 -2 495 -23 626 -68 435
-223 759 -487 1019 -172 170 -388 299 -645 387 l-125 43 -1876 3 -1877 2 -18
-27z m3047 -1188 c279 -42 433 -168 494 -405 47 -183 47 -822 0 -1005 -64
-247 -238 -379 -550 -415 -53 -6 -363 -10 -750 -10 -608 0 -663 1 -695 18 -19
9 -40 28 -47 42 -10 20 -12 208 -10 876 2 836 2 852 22 874 11 12 29 26 40 31
11 4 331 8 710 8 552 1 709 -2 786 -14z m178 -3093 c194 -44 328 -135 390
-264 66 -141 66 -136 66 -738 0 -536 0 -546 -23 -623 -46 -161 -123 -262 -246
-322 -175 -87 -307 -97 -1196 -93 -702 3 -686 2 -716 59 -20 39 -21 1909 -1
1949 7 14 28 33 47 43 33 16 83 17 810 14 749 -3 778 -4 869 -25z"/>
<path d="M7834 7631 c-23 -10 -53 -34 -67 -52 -18 -25 -189 -575 -671 -2166
-355 -1172 -646 -2135 -646 -2138 0 -3 -17 -5 -37 -3 l-36 3 -217 720 -216
719 389 911 c214 500 395 925 403 944 21 48 12 48 -21 -2 -15 -23 -394 -676
-842 -1452 l-815 -1410 226 -730 c124 -401 362 -1190 530 -1752 168 -561 314
-1044 325 -1072 10 -28 35 -73 56 -101 l37 -50 183 0 184 0 31 38 c17 20 42
60 55 87 13 28 195 613 403 1300 209 688 599 1971 867 2853 467 1531 489 1602
512 1602 l23 0 2 -2877 3 -2878 22 -42 c12 -22 34 -51 49 -62 26 -21 32 -21
667 -21 l639 0 38 38 c21 21 43 55 49 77 8 29 11 1062 11 3706 l0 3667 -28 53
c-22 43 -38 59 -81 81 l-53 28 -967 0 c-922 0 -968 -1 -1007 -19z"/>
<path d="M3631 1233 c-377 -653 -685 -1196 -685 -1208 -1 -20 2 -20 657 -23
l658 -2 24 24 c50 50 49 22 53 1249 2 931 0 1147 -10 1147 -7 0 -321 -535
-697 -1187z"/>
</g>
</svg>
